<?xml version="1.0" encoding="UTF-8" standalone="no"?>
<!DOCTYPE svg PUBLIC "-//W3C//DTD SVG 1.1//EN"
 "http://www.w3.org/Graphics/SVG/1.1/DTD/svg11.dtd">
<!-- Generated by graphviz version 2.40.1 (20161225.0304)
 -->
<!-- Title: %3 Pages: 1 -->
<svg width="1976pt" height="736pt"
 viewBox="0.00 0.00 1976.00 736.00" xmlns="http://www.w3.org/2000/svg" xmlns:xlink="http://www.w3.org/1999/xlink">
<g id="graph0" class="graph" transform="scale(1 1) rotate(0) translate(4 732)">
<title>%3</title>
<polygon fill="#ffffff" stroke="transparent" points="-4,4 -4,-732 1972,-732 1972,4 -4,4"/>
<g id="clust4" class="cluster">
<title>cluster_1</title>
<polygon fill="#dddddd" stroke="#dddddd" points="856,-556 856,-662 1088,-662 1088,-556 856,-556"/>
</g>
<g id="clust5" class="cluster">
<title>cluster_2</title>
<polygon fill="#dddddd" stroke="#dddddd" points="1144,-614 1144,-720 1376,-720 1376,-614 1144,-614"/>
</g>
<g id="clust6" class="cluster">
<title>cluster_3</title>
<polygon fill="#dddddd" stroke="#dddddd" points="1144,-500 1144,-606 1376,-606 1376,-500 1144,-500"/>
</g>
<g id="clust7" class="cluster">
<title>cluster_4</title>
<polygon fill="none" stroke="#000000" points="1424,-8 1424,-298 1672,-298 1672,-8 1424,-8"/>
</g>
<g id="clust8" class="cluster">
<title>cluster_4a</title>
<polygon fill="#dddddd" stroke="#dddddd" points="1432,-130 1432,-290 1664,-290 1664,-130 1432,-130"/>
</g>
<g id="clust9" class="cluster">
<title>cluster_4b</title>
<polygon fill="#dddddd" stroke="#dddddd" points="1432,-16 1432,-122 1664,-122 1664,-16 1432,-16"/>
</g>
<g id="clust10" class="cluster">
<title>cluster_6</title>
<polygon fill="#dddddd" stroke="#dddddd" points="856,-410 856,-516 1088,-516 1088,-410 856,-410"/>
</g>
<g id="clust11" class="cluster">
<title>cluster_7</title>
<polygon fill="none" stroke="#000000" points="1424,-306 1424,-542 1960,-542 1960,-306 1424,-306"/>
</g>
<g id="clust12" class="cluster">
<title>cluster_7a</title>
<polygon fill="#dddddd" stroke="#dddddd" points="1432,-314 1432,-420 1664,-420 1664,-314 1432,-314"/>
</g>
<g id="clust13" class="cluster">
<title>cluster_7b</title>
<polygon fill="#dddddd" stroke="#dddddd" points="1720,-314 1720,-420 1952,-420 1952,-314 1720,-314"/>
</g>
<g id="clust14" class="cluster">
<title>cluster_7c</title>
<polygon fill="#dddddd" stroke="#dddddd" points="1432,-428 1432,-534 1664,-534 1664,-428 1432,-428"/>
</g>
<g id="clust15" class="cluster">
<title>cluster_10</title>
<polygon fill="#dddddd" stroke="#dddddd" points="1144,-332 1144,-492 1376,-492 1376,-332 1144,-332"/>
</g>
<g id="clust16" class="cluster">
<title>cluster_11</title>
<polygon fill="#dddddd" stroke="#dddddd" points="1432,-550 1432,-656 1664,-656 1664,-550 1432,-550"/>
</g>
<!-- DOCUMENT -->
<g id="node1" class="node">
<title>DOCUMENT</title>
<path fill="#ffffff" stroke="#000000" d="M204,-631C204,-631 12,-631 12,-631 6,-631 0,-625 0,-619 0,-619 0,-607 0,-607 0,-601 6,-595 12,-595 12,-595 204,-595 204,-595 210,-595 216,-601 216,-607 216,-607 216,-619 216,-619 216,-625 210,-631 204,-631"/>
<text text-anchor="middle" x="108" y="-608.8" font-family="sans" font-size="14.00" fill="#000000">DOCUMENT</text>
</g>
<!-- BLACK -->
<g id="node8" class="node">
<title>BLACK</title>
<path fill="#cccccc" stroke="#000000" d="M780,-712C780,-712 588,-712 588,-712 582,-712 576,-706 576,-700 576,-700 576,-688 576,-688 576,-682 582,-676 588,-676 588,-676 780,-676 780,-676 786,-676 792,-682 792,-688 792,-688 792,-700 792,-700 792,-706 786,-712 780,-712"/>
<text text-anchor="middle" x="684" y="-689.8" font-family="sans" font-size="14.00" fill="#000000">BLACK</text>
</g>
<!-- DOCUMENT&#45;&gt;BLACK -->
<g id="edge8" class="edge">
<title>DOCUMENT&#45;&gt;BLACK</title>
<path fill="none" stroke="#000000" d="M216.4756,-629.5109C240.0466,-633.0316 264.8523,-636.6858 288,-640 381.3688,-653.3681 487.2365,-667.7652 566.0029,-678.3292"/>
<polygon fill="#000000" stroke="#000000" points="565.5813,-681.8039 575.9576,-679.6632 566.5111,-674.8659 565.5813,-681.8039"/>
</g>
<!-- CHARCOAL -->
<g id="node9" class="node">
<title>CHARCOAL</title>
<path fill="#cccccc" stroke="#000000" d="M780,-658C780,-658 588,-658 588,-658 582,-658 576,-652 576,-646 576,-646 576,-634 576,-634 576,-628 582,-622 588,-622 588,-622 780,-622 780,-622 786,-622 792,-628 792,-634 792,-634 792,-646 792,-646 792,-652 786,-658 780,-658"/>
<text text-anchor="middle" x="684" y="-635.8" font-family="sans" font-size="14.00" fill="#000000">CHARCOAL</text>
</g>
<!-- DOCUMENT&#45;&gt;CHARCOAL -->
<g id="edge6" class="edge">
<title>DOCUMENT&#45;&gt;CHARCOAL</title>
<path fill="none" stroke="#000000" d="M216.0032,-618.0626C315.4656,-622.7249 462.7353,-629.6282 565.42,-634.4416"/>
<polygon fill="#000000" stroke="#000000" points="565.3734,-637.9431 575.5263,-634.9153 565.7012,-630.9508 565.3734,-637.9431"/>
</g>
<!-- WHITE -->
<g id="node10" class="node">
<title>WHITE</title>
<path fill="#cccccc" stroke="#000000" d="M780,-604C780,-604 588,-604 588,-604 582,-604 576,-598 576,-592 576,-592 576,-580 576,-580 576,-574 582,-568 588,-568 588,-568 780,-568 780,-568 786,-568 792,-574 792,-580 792,-580 792,-592 792,-592 792,-598 786,-604 780,-604"/>
<text text-anchor="middle" x="684" y="-581.8" font-family="sans" font-size="14.00" fill="#000000">WHITE</text>
</g>
<!-- DOCUMENT&#45;&gt;WHITE -->
<g id="edge7" class="edge">
<title>DOCUMENT&#45;&gt;WHITE</title>
<path fill="none" stroke="#000000" d="M216.0032,-607.9374C315.4656,-603.2751 462.7353,-596.3718 565.42,-591.5584"/>
<polygon fill="#000000" stroke="#000000" points="565.7012,-595.0492 575.5263,-591.0847 565.3734,-588.0569 565.7012,-595.0492"/>
</g>
<!-- TRANSPARENT -->
<g id="node11" class="node">
<title>TRANSPARENT</title>
<path fill="#cccccc" stroke="#000000" d="M780,-550C780,-550 588,-550 588,-550 582,-550 576,-544 576,-538 576,-538 576,-526 576,-526 576,-520 582,-514 588,-514 588,-514 780,-514 780,-514 786,-514 792,-520 792,-526 792,-526 792,-538 792,-538 792,-544 786,-550 780,-550"/>
<text text-anchor="middle" x="684" y="-527.8" font-family="sans" font-size="14.00" fill="#000000">TRANSPARENT</text>
</g>
<!-- DOCUMENT&#45;&gt;TRANSPARENT -->
<g id="edge9" class="edge">
<title>DOCUMENT&#45;&gt;TRANSPARENT</title>
<path fill="none" stroke="#000000" d="M216.0032,-597.8121C315.4656,-583.8252 462.7353,-563.1153 565.42,-548.6753"/>
<polygon fill="#000000" stroke="#000000" points="566.1112,-552.1126 575.5263,-547.2541 565.1363,-545.1808 566.1112,-552.1126"/>
</g>
<!-- USER -->
<g id="node2" class="node">
<title>USER</title>
<path fill="#ffffff" stroke="#000000" d="M204,-225C204,-225 12,-225 12,-225 6,-225 0,-219 0,-213 0,-213 0,-201 0,-201 0,-195 6,-189 12,-189 12,-189 204,-189 204,-189 210,-189 216,-195 216,-201 216,-201 216,-213 216,-213 216,-219 210,-225 204,-225"/>
<text text-anchor="middle" x="108" y="-202.8" font-family="sans" font-size="14.00" fill="#000000">USER</text>
</g>
<!-- brandColor -->
<g id="node3" class="node">
<title>brandColor</title>
<path fill="#66aaff" stroke="#000000" d="M492,-225C492,-225 300,-225 300,-225 294,-225 288,-219 288,-213 288,-213 288,-201 288,-201 288,-195 294,-189 300,-189 300,-189 492,-189 492,-189 498,-189 504,-195 504,-201 504,-201 504,-213 504,-213 504,-219 498,-225 492,-225"/>
<text text-anchor="middle" x="396" y="-202.8" font-family="sans" font-size="14.00" fill="#000000">brandColor</text>
</g>
<!-- USER&#45;&gt;brandColor -->
<g id="edge1" class="edge">
<title>USER&#45;&gt;brandColor</title>
<path fill="none" stroke="#000000" d="M216.06,-207C236.1317,-207 257.1988,-207 277.5613,-207"/>
<polygon fill="#000000" stroke="#000000" points="277.8135,-210.5001 287.8135,-207 277.8135,-203.5001 277.8135,-210.5001"/>
</g>
<!-- brandShading -->
<g id="node4" class="node">
<title>brandShading</title>
<path fill="#aaccff" stroke="#000000" d="M780,-278C780,-278 588,-278 588,-278 582,-278 576,-272 576,-266 576,-266 576,-254 576,-254 576,-248 582,-242 588,-242 588,-242 780,-242 780,-242 786,-242 792,-248 792,-254 792,-254 792,-266 792,-266 792,-272 786,-278 780,-278"/>
<text text-anchor="middle" x="684" y="-255.8" font-family="sans" font-size="14.00" fill="#000000">brandShading</text>
</g>
<!-- brandColor&#45;&gt;brandShading -->
<g id="edge3" class="edge">
<title>brandColor&#45;&gt;brandShading</title>
<path fill="none" stroke="#000000" d="M493.9055,-225.0173C520.3381,-229.8817 549.0871,-235.1723 576.0364,-240.1317"/>
<polygon fill="#000000" stroke="#000000" points="575.4078,-243.5747 585.8761,-241.9425 576.6748,-236.6903 575.4078,-243.5747"/>
</g>
<!-- darkBrandColor -->
<g id="node5" class="node">
<title>darkBrandColor</title>
<path fill="#aaccff" stroke="#000000" d="M780,-168C780,-168 588,-168 588,-168 582,-168 576,-162 576,-156 576,-156 576,-144 576,-144 576,-138 582,-132 588,-132 588,-132 780,-132 780,-132 786,-132 792,-138 792,-144 792,-144 792,-156 792,-156 792,-162 786,-168 780,-168"/>
<text text-anchor="middle" x="684" y="-145.8" font-family="sans" font-size="14.00" fill="#000000">darkBrandColor</text>
</g>
<!-- brandColor&#45;&gt;darkBrandColor -->
<g id="edge2" class="edge">
<title>brandColor&#45;&gt;darkBrandColor</title>
<path fill="none" stroke="#000000" d="M487.125,-188.9648C517.6088,-182.9316 551.7639,-176.1717 582.9582,-169.9978"/>
<polygon fill="#000000" stroke="#000000" points="583.8437,-173.3906 592.9739,-168.0156 582.4846,-166.5238 583.8437,-173.3906"/>
</g>
<!-- brandHighlightColor -->
<g id="node6" class="node">
<title>brandHighlightColor</title>
<path fill="#aaccff" stroke="#000000" d="M780,-114C780,-114 588,-114 588,-114 582,-114 576,-108 576,-102 576,-102 576,-90 576,-90 576,-84 582,-78 588,-78 588,-78 780,-78 780,-78 786,-78 792,-84 792,-90 792,-90 792,-102 792,-102 792,-108 786,-114 780,-114"/>
<text text-anchor="middle" x="684" y="-91.8" font-family="sans" font-size="14.00" fill="#000000">brandHighlightColor</text>
</g>
<!-- brandColor&#45;&gt;brandHighlightColor -->
<g id="edge4" class="edge">
<title>brandColor&#45;&gt;brandHighlightColor</title>
<path fill="none" stroke="#000000" d="M429.6869,-188.8936C465.2516,-170.3509 523.3469,-141.6729 576,-123 581.977,-120.8803 588.196,-118.8605 594.4969,-116.9496"/>
<polygon fill="#000000" stroke="#000000" points="595.8289,-120.2067 604.4427,-114.038 593.8621,-113.4886 595.8289,-120.2067"/>
</g>
<!-- headerBackground -->
<g id="node24" class="node">
<title>headerBackground</title>
<path fill="#ffffff" stroke="#000000" d="M1068,-454C1068,-454 876,-454 876,-454 870,-454 864,-448 864,-442 864,-442 864,-430 864,-430 864,-424 870,-418 876,-418 876,-418 1068,-418 1068,-418 1074,-418 1080,-424 1080,-430 1080,-430 1080,-442 1080,-442 1080,-448 1074,-454 1068,-454"/>
<text text-anchor="middle" x="972" y="-431.8" font-family="sans" font-size="14.00" fill="#000000">headerBackground</text>
</g>
<!-- brandColor&#45;&gt;headerBackground -->
<g id="edge22" class="edge">
<title>brandColor&#45;&gt;headerBackground</title>
<path fill="none" stroke="#000000" d="M430.8911,-225.0474C506.5386,-263.5612 692.0567,-354.7075 856,-409 862.5281,-411.1619 869.3179,-413.2178 876.1911,-415.1587"/>
<polygon fill="#000000" stroke="#000000" points="875.7312,-418.6612 886.3,-417.919 877.5752,-411.9084 875.7312,-418.6612"/>
</g>
<!-- contentShading -->
<g id="node18" class="node">
<title>contentShading</title>
<path fill="#ffffff" stroke="#000000" d="M1068,-400C1068,-400 876,-400 876,-400 870,-400 864,-394 864,-388 864,-388 864,-376 864,-376 864,-370 870,-364 876,-364 876,-364 1068,-364 1068,-364 1074,-364 1080,-370 1080,-376 1080,-376 1080,-388 1080,-388 1080,-394 1074,-400 1068,-400"/>
<text text-anchor="middle" x="972" y="-377.8" font-family="sans" font-size="14.00" fill="#000000">contentShading</text>
</g>
<!-- brandShading&#45;&gt;contentShading -->
<g id="edge16" class="edge">
<title>brandShading&#45;&gt;contentShading</title>
<path fill="none" stroke="#000000" d="M713.8344,-278.1188C747.4275,-297.918 804.112,-329.5381 856,-350 866.0437,-353.9607 876.7597,-357.6264 887.4671,-360.9547"/>
<polygon fill="#000000" stroke="#000000" points="886.6938,-364.3772 897.2786,-363.9154 888.7161,-357.6757 886.6938,-364.3772"/>
</g>
<!-- controlBorderColor -->
<g id="node23" class="node">
<title>controlBorderColor</title>
<path fill="#ffffff" stroke="#000000" d="M1644,-174C1644,-174 1452,-174 1452,-174 1446,-174 1440,-168 1440,-162 1440,-162 1440,-150 1440,-150 1440,-144 1446,-138 1452,-138 1452,-138 1644,-138 1644,-138 1650,-138 1656,-144 1656,-150 1656,-150 1656,-162 1656,-162 1656,-168 1650,-174 1644,-174"/>
<text text-anchor="middle" x="1548" y="-151.8" font-family="sans" font-size="14.00" fill="#000000">controlBorderColor</text>
</g>
<!-- brandShading&#45;&gt;controlBorderColor -->
<g id="edge21" class="edge">
<title>brandShading&#45;&gt;controlBorderColor</title>
<path fill="none" stroke="#000000" d="M733.3376,-241.942C767.342,-230.2785 813.832,-215.8606 856,-208 1055.0277,-170.8989 1290.9401,-160.0995 1429.5535,-157.0583"/>
<polygon fill="#000000" stroke="#000000" points="1429.8506,-160.5529 1439.7751,-156.8442 1429.7039,-153.5544 1429.8506,-160.5529"/>
</g>
<!-- navbarContentColor -->
<g id="node27" class="node">
<title>navbarContentColor</title>
<path fill="#ffffff" stroke="#000000" d="M1644,-412C1644,-412 1452,-412 1452,-412 1446,-412 1440,-406 1440,-400 1440,-400 1440,-388 1440,-388 1440,-382 1446,-376 1452,-376 1452,-376 1644,-376 1644,-376 1650,-376 1656,-382 1656,-388 1656,-388 1656,-400 1656,-400 1656,-406 1650,-412 1644,-412"/>
<text text-anchor="middle" x="1548" y="-389.8" font-family="sans" font-size="14.00" fill="#000000">navbarContentColor</text>
</g>
<!-- brandShading&#45;&gt;navbarContentColor -->
<g id="edge25" class="edge">
<title>brandShading&#45;&gt;navbarContentColor</title>
<path fill="none" stroke="#000000" d="M792.2502,-243.0552C962.7445,-218.7684 1283.9241,-183.4698 1376,-246 1423.8612,-278.5033 1379.8911,-329.5625 1424,-367 1426.2834,-368.9381 1428.674,-370.7464 1431.1538,-372.4334"/>
<polygon fill="#000000" stroke="#000000" points="1429.5334,-375.5434 1439.9037,-377.7135 1433.1501,-369.5501 1429.5334,-375.5434"/>
</g>
<!-- sidebarfacetBackground -->
<g id="node35" class="node">
<title>sidebarfacetBackground</title>
<path fill="#ffffff" stroke="#000000" d="M1356,-376C1356,-376 1164,-376 1164,-376 1158,-376 1152,-370 1152,-364 1152,-364 1152,-352 1152,-352 1152,-346 1158,-340 1164,-340 1164,-340 1356,-340 1356,-340 1362,-340 1368,-346 1368,-352 1368,-352 1368,-364 1368,-364 1368,-370 1362,-376 1356,-376"/>
<text text-anchor="middle" x="1260" y="-353.8" font-family="sans" font-size="14.00" fill="#000000">sidebarfacetBackground</text>
</g>
<!-- brandShading&#45;&gt;sidebarfacetBackground -->
<g id="edge33" class="edge">
<title>brandShading&#45;&gt;sidebarfacetBackground</title>
<path fill="none" stroke="#000000" d="M734.9332,-278.0397C768.8406,-289.3904 814.6016,-303.458 856,-312 951.1406,-331.631 1060.7368,-343.4489 1141.7547,-350.181"/>
<polygon fill="#000000" stroke="#000000" points="1141.7381,-353.6912 1151.9899,-351.0171 1142.3081,-346.7145 1141.7381,-353.6912"/>
</g>
<!-- resultBackground -->
<g id="node36" class="node">
<title>resultBackground</title>
<path fill="#ffffff" stroke="#000000" d="M1644,-648C1644,-648 1452,-648 1452,-648 1446,-648 1440,-642 1440,-636 1440,-636 1440,-624 1440,-624 1440,-618 1446,-612 1452,-612 1452,-612 1644,-612 1644,-612 1650,-612 1656,-618 1656,-624 1656,-624 1656,-636 1656,-636 1656,-642 1650,-648 1644,-648"/>
<text text-anchor="middle" x="1548" y="-625.8" font-family="sans" font-size="14.00" fill="#000000">resultBackground</text>
</g>
<!-- brandShading&#45;&gt;resultBackground -->
<g id="edge34" class="edge">
<title>brandShading&#45;&gt;resultBackground</title>
<path fill="none" stroke="#000000" d="M792.2107,-267.2112C981.5354,-280.3035 1354.9134,-308.4356 1376,-328 1466.952,-412.3867 1338.1124,-513.4639 1424,-603 1426.364,-605.4645 1428.8964,-607.7295 1431.568,-609.8101"/>
<polygon fill="#000000" stroke="#000000" points="1429.7318,-612.7939 1439.9715,-615.5143 1433.6632,-607.0021 1429.7318,-612.7939"/>
</g>
<!-- resultBorderColor -->
<g id="node37" class="node">
<title>resultBorderColor</title>
<path fill="#ffffff" stroke="#000000" d="M1644,-594C1644,-594 1452,-594 1452,-594 1446,-594 1440,-588 1440,-582 1440,-582 1440,-570 1440,-570 1440,-564 1446,-558 1452,-558 1452,-558 1644,-558 1644,-558 1650,-558 1656,-564 1656,-570 1656,-570 1656,-582 1656,-582 1656,-588 1650,-594 1644,-594"/>
<text text-anchor="middle" x="1548" y="-571.8" font-family="sans" font-size="14.00" fill="#000000">resultBorderColor</text>
</g>
<!-- brandShading&#45;&gt;resultBorderColor -->
<g id="edge36" class="edge">
<title>brandShading&#45;&gt;resultBorderColor</title>
<path fill="none" stroke="#000000" d="M792.1676,-256.4788C975.7875,-251.5596 1332.8725,-246.9797 1376,-284 1463.1749,-358.8301 1347.3766,-452.397 1424,-538 1429.1104,-543.7093 1435.0535,-548.5723 1441.5174,-552.7129"/>
<polygon fill="#000000" stroke="#000000" points="1440.2074,-555.9957 1450.6254,-557.9232 1443.6833,-549.9197 1440.2074,-555.9957"/>
</g>
<!-- controlActiveContentColor -->
<g id="node22" class="node">
<title>controlActiveContentColor</title>
<path fill="#ffffff" stroke="#000000" d="M1644,-114C1644,-114 1452,-114 1452,-114 1446,-114 1440,-108 1440,-102 1440,-102 1440,-90 1440,-90 1440,-84 1446,-78 1452,-78 1452,-78 1644,-78 1644,-78 1650,-78 1656,-84 1656,-90 1656,-90 1656,-102 1656,-102 1656,-108 1650,-114 1644,-114"/>
<text text-anchor="middle" x="1548" y="-91.8" font-family="sans" font-size="14.00" fill="#000000">controlActiveContentColor</text>
</g>
<!-- darkBrandColor&#45;&gt;controlActiveContentColor -->
<g id="edge20" class="edge">
<title>darkBrandColor&#45;&gt;controlActiveContentColor</title>
<path fill="none" stroke="#000000" d="M792.1887,-137.8062C813.3312,-135.6697 835.3465,-133.6168 856,-132 1057.1046,-116.2569 1291.6452,-105.6924 1429.5432,-100.2767"/>
<polygon fill="#000000" stroke="#000000" points="1429.8565,-103.7673 1439.7123,-99.8798 1429.5834,-96.7726 1429.8565,-103.7673"/>
</g>
<!-- navbarBackground -->
<g id="node26" class="node">
<title>navbarBackground</title>
<path fill="#ffffff" stroke="#000000" d="M1644,-358C1644,-358 1452,-358 1452,-358 1446,-358 1440,-352 1440,-346 1440,-346 1440,-334 1440,-334 1440,-328 1446,-322 1452,-322 1452,-322 1644,-322 1644,-322 1650,-322 1656,-328 1656,-334 1656,-334 1656,-346 1656,-346 1656,-352 1650,-358 1644,-358"/>
<text text-anchor="middle" x="1548" y="-335.8" font-family="sans" font-size="14.00" fill="#000000">navbarBackground</text>
</g>
<!-- darkBrandColor&#45;&gt;navbarBackground -->
<g id="edge24" class="edge">
<title>darkBrandColor&#45;&gt;navbarBackground</title>
<path fill="none" stroke="#000000" d="M792.2401,-146.5248C962.322,-143.0626 1282.4405,-145.2231 1376,-206 1413.3602,-230.2695 1390.3114,-264.8475 1424,-294 1435.5368,-303.9834 1449.4384,-311.8833 1463.6999,-318.1087"/>
<polygon fill="#000000" stroke="#000000" points="1462.5222,-321.4085 1473.1026,-321.9629 1465.1772,-314.9316 1462.5222,-321.4085"/>
</g>
<!-- brandHighlightShading -->
<g id="node7" class="node">
<title>brandHighlightShading</title>
<path fill="#aaccff" stroke="#000000" d="M780,-60C780,-60 588,-60 588,-60 582,-60 576,-54 576,-48 576,-48 576,-36 576,-36 576,-30 582,-24 588,-24 588,-24 780,-24 780,-24 786,-24 792,-30 792,-36 792,-36 792,-48 792,-48 792,-54 786,-60 780,-60"/>
<text text-anchor="middle" x="684" y="-37.8" font-family="sans" font-size="14.00" fill="#000000">brandHighlightShading</text>
</g>
<!-- brandHighlightColor&#45;&gt;brandHighlightShading -->
<g id="edge5" class="edge">
<title>brandHighlightColor&#45;&gt;brandHighlightShading</title>
<path fill="none" stroke="#000000" d="M684,-77.7902C684,-75.3082 684,-72.8262 684,-70.3443"/>
<polygon fill="#000000" stroke="#000000" points="687.5001,-70.1406 684,-60.1406 680.5001,-70.1407 687.5001,-70.1406"/>
</g>
<!-- controlActiveBackground -->
<g id="node21" class="node">
<title>controlActiveBackground</title>
<path fill="#ffffff" stroke="#000000" d="M1644,-60C1644,-60 1452,-60 1452,-60 1446,-60 1440,-54 1440,-48 1440,-48 1440,-36 1440,-36 1440,-30 1446,-24 1452,-24 1452,-24 1644,-24 1644,-24 1650,-24 1656,-30 1656,-36 1656,-36 1656,-48 1656,-48 1656,-54 1650,-60 1644,-60"/>
<text text-anchor="middle" x="1548" y="-37.8" font-family="sans" font-size="14.00" fill="#000000">controlActiveBackground</text>
</g>
<!-- brandHighlightShading&#45;&gt;controlActiveBackground -->
<g id="edge19" class="edge">
<title>brandHighlightShading&#45;&gt;controlActiveBackground</title>
<path fill="none" stroke="#000000" d="M792.115,-42C954.7428,-42 1261.1691,-42 1429.6203,-42"/>
<polygon fill="#000000" stroke="#000000" points="1429.7688,-45.5001 1439.7688,-42 1429.7687,-38.5001 1429.7688,-45.5001"/>
</g>
<!-- pagePrintColor -->
<g id="node14" class="node">
<title>pagePrintColor</title>
<path fill="#ffffff" stroke="#000000" d="M1356,-712C1356,-712 1164,-712 1164,-712 1158,-712 1152,-706 1152,-700 1152,-700 1152,-688 1152,-688 1152,-682 1158,-676 1164,-676 1164,-676 1356,-676 1356,-676 1362,-676 1368,-682 1368,-688 1368,-688 1368,-700 1368,-700 1368,-706 1362,-712 1356,-712"/>
<text text-anchor="middle" x="1260" y="-689.8" font-family="sans" font-size="14.00" fill="#000000">pagePrintColor</text>
</g>
<!-- BLACK&#45;&gt;pagePrintColor -->
<g id="edge12" class="edge">
<title>BLACK&#45;&gt;pagePrintColor</title>
<path fill="none" stroke="#000000" d="M792.0032,-694C891.4656,-694 1038.7353,-694 1141.42,-694"/>
<polygon fill="#000000" stroke="#000000" points="1141.5264,-697.5001 1151.5263,-694 1141.5263,-690.5001 1141.5264,-697.5001"/>
</g>
<!-- pageColor -->
<g id="node12" class="node">
<title>pageColor</title>
<path fill="#ffffff" stroke="#000000" d="M1068,-600C1068,-600 876,-600 876,-600 870,-600 864,-594 864,-588 864,-588 864,-576 864,-576 864,-570 870,-564 876,-564 876,-564 1068,-564 1068,-564 1074,-564 1080,-570 1080,-576 1080,-576 1080,-588 1080,-588 1080,-594 1074,-600 1068,-600"/>
<text text-anchor="middle" x="972" y="-577.8" font-family="sans" font-size="14.00" fill="#000000">pageColor</text>
</g>
<!-- CHARCOAL&#45;&gt;pageColor -->
<g id="edge10" class="edge">
<title>CHARCOAL&#45;&gt;pageColor</title>
<path fill="none" stroke="#000000" d="M773.5463,-621.9664C804.9713,-615.6377 840.4538,-608.4919 872.6357,-602.0109"/>
<polygon fill="#000000" stroke="#000000" points="873.3969,-605.4279 882.5091,-600.0225 872.0149,-598.5657 873.3969,-605.4279"/>
</g>
<!-- pageBackground -->
<g id="node13" class="node">
<title>pageBackground</title>
<path fill="#ffffff" stroke="#000000" d="M1068,-654C1068,-654 876,-654 876,-654 870,-654 864,-648 864,-642 864,-642 864,-630 864,-630 864,-624 870,-618 876,-618 876,-618 1068,-618 1068,-618 1074,-618 1080,-624 1080,-630 1080,-630 1080,-642 1080,-642 1080,-648 1074,-654 1068,-654"/>
<text text-anchor="middle" x="972" y="-631.8" font-family="sans" font-size="14.00" fill="#000000">pageBackground</text>
</g>
<!-- WHITE&#45;&gt;pageBackground -->
<g id="edge11" class="edge">
<title>WHITE&#45;&gt;pageBackground</title>
<path fill="none" stroke="#000000" d="M787.9746,-604.0511C810.8136,-608.0162 835.1117,-612.2347 858.3105,-616.2622"/>
<polygon fill="#000000" stroke="#000000" points="857.7267,-619.7132 868.178,-617.9753 858.9241,-612.8163 857.7267,-619.7132"/>
</g>
<!-- headerContentColor -->
<g id="node25" class="node">
<title>headerContentColor</title>
<path fill="#ffffff" stroke="#000000" d="M1068,-508C1068,-508 876,-508 876,-508 870,-508 864,-502 864,-496 864,-496 864,-484 864,-484 864,-478 870,-472 876,-472 876,-472 1068,-472 1068,-472 1074,-472 1080,-478 1080,-484 1080,-484 1080,-496 1080,-496 1080,-502 1074,-508 1068,-508"/>
<text text-anchor="middle" x="972" y="-485.8" font-family="sans" font-size="14.00" fill="#000000">headerContentColor</text>
</g>
<!-- WHITE&#45;&gt;headerContentColor -->
<g id="edge23" class="edge">
<title>WHITE&#45;&gt;headerContentColor</title>
<path fill="none" stroke="#000000" d="M761.0197,-567.9608C771.487,-565.1554 782.0467,-562.1392 792,-559 835.616,-545.2438 883.957,-526.5128 919.5507,-512.0378"/>
<polygon fill="#000000" stroke="#000000" points="921.3068,-515.101 929.2374,-508.0756 918.6566,-508.622 921.3068,-515.101"/>
</g>
<!-- sidebarBackground -->
<g id="node33" class="node">
<title>sidebarBackground</title>
<path fill="#ffffff" stroke="#000000" d="M1356,-430C1356,-430 1164,-430 1164,-430 1158,-430 1152,-424 1152,-418 1152,-418 1152,-406 1152,-406 1152,-400 1158,-394 1164,-394 1164,-394 1356,-394 1356,-394 1362,-394 1368,-400 1368,-406 1368,-406 1368,-418 1368,-418 1368,-424 1362,-430 1356,-430"/>
<text text-anchor="middle" x="1260" y="-407.8" font-family="sans" font-size="14.00" fill="#000000">sidebarBackground</text>
</g>
<!-- TRANSPARENT&#45;&gt;sidebarBackground -->
<g id="edge31" class="edge">
<title>TRANSPARENT&#45;&gt;sidebarBackground</title>
<path fill="none" stroke="#000000" d="M792.4596,-539.5852C894.557,-544.8089 1038.9081,-546.6786 1088,-520 1126.4544,-499.1023 1107.8116,-463.6141 1144,-439 1146.1692,-437.5246 1148.4083,-436.1291 1150.7051,-434.8092"/>
<polygon fill="#000000" stroke="#000000" points="1152.5553,-437.7925 1159.8239,-430.0842 1149.3348,-431.5773 1152.5553,-437.7925"/>
</g>
<!-- contentColor -->
<g id="node17" class="node">
<title>contentColor</title>
<path fill="#ffffff" stroke="#000000" d="M1356,-544C1356,-544 1164,-544 1164,-544 1158,-544 1152,-538 1152,-532 1152,-532 1152,-520 1152,-520 1152,-514 1158,-508 1164,-508 1164,-508 1356,-508 1356,-508 1362,-508 1368,-514 1368,-520 1368,-520 1368,-532 1368,-532 1368,-538 1362,-544 1356,-544"/>
<text text-anchor="middle" x="1260" y="-521.8" font-family="sans" font-size="14.00" fill="#000000">contentColor</text>
</g>
<!-- pageColor&#45;&gt;contentColor -->
<g id="edge15" class="edge">
<title>pageColor&#45;&gt;contentColor</title>
<path fill="none" stroke="#000000" d="M1064.7103,-563.973C1094.1098,-558.2564 1126.7902,-551.9019 1156.8752,-546.052"/>
<polygon fill="#000000" stroke="#000000" points="1157.8219,-549.4336 1166.97,-544.0892 1156.4858,-542.5623 1157.8219,-549.4336"/>
</g>
<!-- sidebarContentColor -->
<g id="node34" class="node">
<title>sidebarContentColor</title>
<path fill="#ffffff" stroke="#000000" d="M1356,-484C1356,-484 1164,-484 1164,-484 1158,-484 1152,-478 1152,-472 1152,-472 1152,-460 1152,-460 1152,-454 1158,-448 1164,-448 1164,-448 1356,-448 1356,-448 1362,-448 1368,-454 1368,-460 1368,-460 1368,-472 1368,-472 1368,-478 1362,-484 1356,-484"/>
<text text-anchor="middle" x="1260" y="-461.8" font-family="sans" font-size="14.00" fill="#000000">sidebarContentColor</text>
</g>
<!-- pageColor&#45;&gt;sidebarContentColor -->
<g id="edge32" class="edge">
<title>pageColor&#45;&gt;sidebarContentColor</title>
<path fill="none" stroke="#000000" d="M1056.9981,-563.8923C1067.7734,-560.0692 1078.3813,-555.4842 1088,-550 1118.0362,-532.8744 1113.827,-512.8833 1144,-496 1149.4799,-492.9337 1155.2804,-490.1734 1161.2497,-487.6896"/>
<polygon fill="#000000" stroke="#000000" points="1162.6872,-490.8863 1170.7472,-484.0098 1160.1581,-484.3591 1162.6872,-490.8863"/>
</g>
<!-- pagePrintBackground -->
<g id="node15" class="node">
<title>pagePrintBackground</title>
<path fill="#ffffff" stroke="#000000" d="M1356,-658C1356,-658 1164,-658 1164,-658 1158,-658 1152,-652 1152,-646 1152,-646 1152,-634 1152,-634 1152,-628 1158,-622 1164,-622 1164,-622 1356,-622 1356,-622 1362,-622 1368,-628 1368,-634 1368,-634 1368,-646 1368,-646 1368,-652 1362,-658 1356,-658"/>
<text text-anchor="middle" x="1260" y="-635.8" font-family="sans" font-size="14.00" fill="#000000">pagePrintBackground</text>
</g>
<!-- pageBackground&#45;&gt;pagePrintBackground -->
<g id="edge13" class="edge">
<title>pageBackground&#45;&gt;pagePrintBackground</title>
<path fill="none" stroke="#000000" d="M1080.06,-637.5008C1100.1317,-637.7796 1121.1988,-638.0722 1141.5613,-638.355"/>
<polygon fill="#000000" stroke="#000000" points="1141.7658,-641.8581 1151.8135,-638.4974 1141.8631,-634.8588 1141.7658,-641.8581"/>
</g>
<!-- contentBackground -->
<g id="node16" class="node">
<title>contentBackground</title>
<path fill="#ffffff" stroke="#000000" d="M1356,-598C1356,-598 1164,-598 1164,-598 1158,-598 1152,-592 1152,-586 1152,-586 1152,-574 1152,-574 1152,-568 1158,-562 1164,-562 1164,-562 1356,-562 1356,-562 1362,-562 1368,-568 1368,-574 1368,-574 1368,-586 1368,-586 1368,-592 1362,-598 1356,-598"/>
<text text-anchor="middle" x="1260" y="-575.8" font-family="sans" font-size="14.00" fill="#000000">contentBackground</text>
</g>
<!-- pageBackground&#45;&gt;contentBackground -->
<g id="edge14" class="edge">
<title>pageBackground&#45;&gt;contentBackground</title>
<path fill="none" stroke="#000000" d="M1064.7103,-617.973C1094.1098,-612.2564 1126.7902,-605.9019 1156.8752,-600.052"/>
<polygon fill="#000000" stroke="#000000" points="1157.8219,-603.4336 1166.97,-598.0892 1156.4858,-596.5623 1157.8219,-603.4336"/>
</g>
<!-- controlBackground -->
<g id="node19" class="node">
<title>controlBackground</title>
<path fill="#ffffff" stroke="#000000" d="M1644,-282C1644,-282 1452,-282 1452,-282 1446,-282 1440,-276 1440,-270 1440,-270 1440,-258 1440,-258 1440,-252 1446,-246 1452,-246 1452,-246 1644,-246 1644,-246 1650,-246 1656,-252 1656,-258 1656,-258 1656,-270 1656,-270 1656,-276 1650,-282 1644,-282"/>
<text text-anchor="middle" x="1548" y="-259.8" font-family="sans" font-size="14.00" fill="#000000">controlBackground</text>
</g>
<!-- contentBackground&#45;&gt;controlBackground -->
<g id="edge17" class="edge">
<title>contentBackground&#45;&gt;controlBackground</title>
<path fill="none" stroke="#000000" d="M1365.3981,-561.9367C1369.2046,-559.3099 1372.7661,-556.3446 1376,-553 1452.5218,-473.8576 1352.6355,-393.8225 1424,-310 1432.2803,-300.2743 1442.8172,-292.6032 1454.2389,-286.5532"/>
<polygon fill="#000000" stroke="#000000" points="1456.0862,-289.5475 1463.5625,-282.0404 1453.0365,-283.2468 1456.0862,-289.5475"/>
</g>
<!-- navbarCurrentBackground -->
<g id="node30" class="node">
<title>navbarCurrentBackground</title>
<path fill="#ffffff" stroke="#000000" d="M1644,-526C1644,-526 1452,-526 1452,-526 1446,-526 1440,-520 1440,-514 1440,-514 1440,-502 1440,-502 1440,-496 1446,-490 1452,-490 1452,-490 1644,-490 1644,-490 1650,-490 1656,-496 1656,-502 1656,-502 1656,-514 1656,-514 1656,-520 1650,-526 1644,-526"/>
<text text-anchor="middle" x="1548" y="-503.8" font-family="sans" font-size="14.00" fill="#000000">navbarCurrentBackground</text>
</g>
<!-- contentBackground&#45;&gt;navbarCurrentBackground -->
<g id="edge28" class="edge">
<title>contentBackground&#45;&gt;navbarCurrentBackground</title>
<path fill="none" stroke="#000000" d="M1338.6909,-561.9887C1351.1856,-559.0411 1363.956,-555.9766 1376,-553 1407.0941,-545.3152 1441.2413,-536.4666 1470.8574,-528.6604"/>
<polygon fill="#000000" stroke="#000000" points="1471.9419,-531.994 1480.7165,-526.0562 1470.1542,-525.2262 1471.9419,-531.994"/>
</g>
<!-- collectionbarBackground -->
<g id="node32" class="node">
<title>collectionbarBackground</title>
<path fill="#ffffff" stroke="#000000" d="M1644,-702C1644,-702 1452,-702 1452,-702 1446,-702 1440,-696 1440,-690 1440,-690 1440,-678 1440,-678 1440,-672 1446,-666 1452,-666 1452,-666 1644,-666 1644,-666 1650,-666 1656,-672 1656,-678 1656,-678 1656,-690 1656,-690 1656,-696 1650,-702 1644,-702"/>
<text text-anchor="middle" x="1548" y="-679.8" font-family="sans" font-size="14.00" fill="#000000">collectionbarBackground</text>
</g>
<!-- contentBackground&#45;&gt;collectionbarBackground -->
<g id="edge30" class="edge">
<title>contentBackground&#45;&gt;collectionbarBackground</title>
<path fill="none" stroke="#000000" d="M1350.3437,-598.0226C1359.2938,-601.3687 1368.0107,-605.3249 1376,-610 1402.5874,-625.558 1396.944,-645.2721 1424,-660 1426.0342,-661.1073 1428.1117,-662.1641 1430.2253,-663.1727"/>
<polygon fill="#000000" stroke="#000000" points="1429.1366,-666.5158 1439.7029,-667.2929 1431.9274,-660.0962 1429.1366,-666.5158"/>
</g>
<!-- contentBackground&#45;&gt;resultBackground -->
<g id="edge35" class="edge">
<title>contentBackground&#45;&gt;resultBackground</title>
<path fill="none" stroke="#000000" d="M1363.9746,-598.0511C1386.8136,-602.0162 1411.1117,-606.2347 1434.3105,-610.2622"/>
<polygon fill="#000000" stroke="#000000" points="1433.7267,-613.7132 1444.178,-611.9753 1434.9241,-606.8163 1433.7267,-613.7132"/>
</g>
<!-- controlContentColor -->
<g id="node20" class="node">
<title>controlContentColor</title>
<path fill="#ffffff" stroke="#000000" d="M1644,-228C1644,-228 1452,-228 1452,-228 1446,-228 1440,-222 1440,-216 1440,-216 1440,-204 1440,-204 1440,-198 1446,-192 1452,-192 1452,-192 1644,-192 1644,-192 1650,-192 1656,-198 1656,-204 1656,-204 1656,-216 1656,-216 1656,-222 1650,-228 1644,-228"/>
<text text-anchor="middle" x="1548" y="-205.8" font-family="sans" font-size="14.00" fill="#000000">controlContentColor</text>
</g>
<!-- contentColor&#45;&gt;controlContentColor -->
<g id="edge18" class="edge">
<title>contentColor&#45;&gt;controlContentColor</title>
<path fill="none" stroke="#000000" d="M1361.3808,-507.9769C1366.7307,-504.6003 1371.6731,-500.6401 1376,-496 1455.8418,-410.379 1342.5173,-321.061 1424,-237 1426.1924,-234.7383 1428.5266,-232.6449 1430.98,-230.7083"/>
<polygon fill="#000000" stroke="#000000" points="1433.4706,-233.2451 1439.7479,-224.7101 1429.5182,-227.4677 1433.4706,-233.2451"/>
</g>
<!-- navbarCurrentColor -->
<g id="node31" class="node">
<title>navbarCurrentColor</title>
<path fill="#ffffff" stroke="#000000" d="M1644,-472C1644,-472 1452,-472 1452,-472 1446,-472 1440,-466 1440,-460 1440,-460 1440,-448 1440,-448 1440,-442 1446,-436 1452,-436 1452,-436 1644,-436 1644,-436 1650,-436 1656,-442 1656,-448 1656,-448 1656,-460 1656,-460 1656,-466 1650,-472 1644,-472"/>
<text text-anchor="middle" x="1548" y="-449.8" font-family="sans" font-size="14.00" fill="#000000">navbarCurrentColor</text>
</g>
<!-- contentColor&#45;&gt;navbarCurrentColor -->
<g id="edge29" class="edge">
<title>contentColor&#45;&gt;navbarCurrentColor</title>
<path fill="none" stroke="#000000" d="M1331.9309,-507.9923C1346.5509,-504.1652 1361.7979,-500.0528 1376,-496 1397.4927,-489.8666 1402.3927,-486.7166 1424,-481 1432.603,-478.724 1441.578,-476.494 1450.5935,-474.3522"/>
<polygon fill="#000000" stroke="#000000" points="1451.4361,-477.7497 1460.3766,-472.0648 1449.8423,-470.9336 1451.4361,-477.7497"/>
</g>
<!-- navbarHighlightContentColor -->
<g id="node29" class="node">
<title>navbarHighlightContentColor</title>
<path fill="#ffffff" stroke="#000000" d="M1932,-358C1932,-358 1740,-358 1740,-358 1734,-358 1728,-352 1728,-346 1728,-346 1728,-334 1728,-334 1728,-328 1734,-322 1740,-322 1740,-322 1932,-322 1932,-322 1938,-322 1944,-328 1944,-334 1944,-334 1944,-346 1944,-346 1944,-352 1938,-358 1932,-358"/>
<text text-anchor="middle" x="1836" y="-335.8" font-family="sans" font-size="14.00" fill="#000000">navbarHighlightContentColor</text>
</g>
<!-- navbarBackground&#45;&gt;navbarHighlightContentColor -->
<g id="edge27" class="edge">
<title>navbarBackground&#45;&gt;navbarHighlightContentColor</title>
<path fill="none" stroke="#000000" d="M1656.06,-340C1676.1317,-340 1697.1988,-340 1717.5613,-340"/>
<polygon fill="#000000" stroke="#000000" points="1717.8135,-343.5001 1727.8135,-340 1717.8135,-336.5001 1717.8135,-343.5001"/>
</g>
<!-- navbarHighlightBackground -->
<g id="node28" class="node">
<title>navbarHighlightBackground</title>
<path fill="#ffffff" stroke="#000000" d="M1932,-412C1932,-412 1740,-412 1740,-412 1734,-412 1728,-406 1728,-400 1728,-400 1728,-388 1728,-388 1728,-382 1734,-376 1740,-376 1740,-376 1932,-376 1932,-376 1938,-376 1944,-382 1944,-388 1944,-388 1944,-400 1944,-400 1944,-406 1938,-412 1932,-412"/>
<text text-anchor="middle" x="1836" y="-389.8" font-family="sans" font-size="14.00" fill="#000000">navbarHighlightBackground</text>
</g>
<!-- navbarContentColor&#45;&gt;navbarHighlightBackground -->
<g id="edge26" class="edge">
<title>navbarContentColor&#45;&gt;navbarHighlightBackground</title>
<path fill="none" stroke="#000000" d="M1656.06,-394C1676.1317,-394 1697.1988,-394 1717.5613,-394"/>
<polygon fill="#000000" stroke="#000000" points="1717.8135,-397.5001 1727.8135,-394 1717.8135,-390.5001 1717.8135,-397.5001"/>
</g>
</g>
</svg>
